# xmcd
#
# Track frame offsets:
#	150
#	22197
#	42539
#	62910
#	83696
#	104117
#	125329
#	149454
#	170066
#	188673
#	207523
#	221253
#
# Disc length: 3208 seconds
# Revision: 2
# Processed by: cddbd v1.5.2PL0 Copyright (c) Steve Scherf et al.
# Submitted via: dBpowerAMP V12.0
#
DISCID=ba0c860c
DTITLE=Daniel - En Español
DYEAR=2001
DGENRE=Sertanejo
TTITLE0=Enamorarme Fue Un Placer (Adoro Amar Vocé)
TTITLE1=Hablando Claro (Pra Falar A Verdade)
TTITLE2=Que Era Yo (Que Era Eu)
TTITLE3=Polgadita De Mi (No Ponto Pra Mim)
TTITLE4=Yo Paso Por La Vida (Vou Levando A Vida)
TTITLE5=Declaración De Amor (Declaraçión De Amor)
TTITLE6=Te Amo Cada Vez Más (To Love You More)
TTITLE7=Estoy Enamorado
TTITLE8=Pon Qué Caricia (Com Qual Carícia)
TTITLE9=Mi Estrella Perdida (Minha Estrela Perdida)
TTITLE10=Eres Mi Vida (Só Dá Você Na Minha Vida)
TTITLE11=Flor Y Colibri (Flor E Colibri)
EXTD=
EXTT0=
EXTT1=
EXTT2=
EXTT3=
EXTT4=
EXTT5=
EXTT6=
EXTT7=
EXTT8=
EXTT9=
EXTT10=
EXTT11=
PLAYORDER=
